<svg width="893" height="310" viewBox="0 0 893 310" fill="none" xmlns="http://www.w3.org/2000/svg">
<path d="M369.539 126.008H352.43C352.117 123.794 351.479 121.828 350.516 120.109C349.552 118.365 348.315 116.88 346.805 115.656C345.294 114.432 343.549 113.495 341.57 112.844C339.617 112.193 337.495 111.867 335.203 111.867C331.063 111.867 327.456 112.896 324.383 114.953C321.31 116.984 318.927 119.953 317.234 123.859C315.542 127.74 314.695 132.453 314.695 138C314.695 143.703 315.542 148.495 317.234 152.375C318.953 156.255 321.349 159.185 324.422 161.164C327.495 163.143 331.049 164.133 335.086 164.133C337.352 164.133 339.448 163.833 341.375 163.234C343.328 162.635 345.06 161.763 346.57 160.617C348.081 159.445 349.331 158.026 350.32 156.359C351.336 154.693 352.039 152.792 352.43 150.656L369.539 150.734C369.096 154.406 367.99 157.948 366.219 161.359C364.474 164.745 362.117 167.779 359.148 170.461C356.206 173.117 352.69 175.227 348.602 176.789C344.539 178.326 339.943 179.094 334.813 179.094C327.677 179.094 321.297 177.479 315.672 174.25C310.073 171.021 305.646 166.346 302.391 160.227C299.161 154.107 297.547 146.698 297.547 138C297.547 129.276 299.188 121.854 302.469 115.734C305.75 109.615 310.203 104.953 315.828 101.75C321.453 98.5208 327.781 96.9062 334.813 96.9062C339.448 96.9062 343.745 97.5573 347.703 98.8594C351.688 100.161 355.216 102.062 358.289 104.562C361.362 107.036 363.862 110.07 365.789 113.664C367.742 117.258 368.992 121.372 369.539 126.008ZM431.082 98H447.996V149.953C447.996 155.786 446.603 160.891 443.816 165.266C441.056 169.641 437.189 173.052 432.215 175.5C427.241 177.922 421.447 179.133 414.832 179.133C408.191 179.133 402.384 177.922 397.41 175.5C392.436 173.052 388.569 169.641 385.809 165.266C383.048 160.891 381.668 155.786 381.668 149.953V98H398.582V148.508C398.582 151.555 399.246 154.263 400.574 156.633C401.928 159.003 403.829 160.865 406.277 162.219C408.725 163.573 411.577 164.25 414.832 164.25C418.113 164.25 420.965 163.573 423.387 162.219C425.835 160.865 427.723 159.003 429.051 156.633C430.405 154.263 431.082 151.555 431.082 148.508V98ZM461.912 178V98H493.943C499.829 98 504.738 98.8724 508.67 100.617C512.602 102.362 515.558 104.784 517.537 107.883C519.516 110.956 520.506 114.497 520.506 118.508C520.506 121.633 519.881 124.38 518.631 126.75C517.381 129.094 515.662 131.021 513.475 132.531C511.313 134.016 508.839 135.07 506.053 135.695V136.477C509.1 136.607 511.951 137.466 514.607 139.055C517.29 140.643 519.464 142.87 521.131 145.734C522.798 148.573 523.631 151.958 523.631 155.891C523.631 160.135 522.576 163.924 520.467 167.258C518.383 170.565 515.298 173.182 511.209 175.109C507.12 177.036 502.081 178 496.092 178H461.912ZM478.826 164.172H492.615C497.329 164.172 500.766 163.273 502.928 161.477C505.089 159.654 506.17 157.232 506.17 154.211C506.17 151.997 505.636 150.044 504.568 148.352C503.501 146.659 501.977 145.331 499.998 144.367C498.045 143.404 495.714 142.922 493.006 142.922H478.826V164.172ZM478.826 131.477H491.365C493.683 131.477 495.74 131.073 497.537 130.266C499.36 129.432 500.792 128.26 501.834 126.75C502.902 125.24 503.436 123.43 503.436 121.32C503.436 118.43 502.407 116.099 500.35 114.328C498.318 112.557 495.428 111.672 491.678 111.672H478.826V131.477ZM534.637 178V98H588.543V111.945H551.551V131.008H585.77V144.953H551.551V164.055H588.699V178H534.637Z" fill="black"/>
<path d="M324.081 271H303.939V214.178H324.248C329.963 214.178 334.884 215.316 339.008 217.591C343.133 219.848 346.305 223.094 348.525 227.329C350.763 231.565 351.882 236.633 351.882 242.534C351.882 248.453 350.763 253.539 348.525 257.793C346.305 262.048 343.115 265.312 338.953 267.587C334.81 269.862 329.852 271 324.081 271ZM315.952 260.707H323.582C327.133 260.707 330.121 260.078 332.544 258.82C334.985 257.544 336.816 255.574 338.037 252.91C339.276 250.228 339.896 246.769 339.896 242.534C339.896 238.335 339.276 234.904 338.037 232.24C336.816 229.577 334.994 227.616 332.571 226.358C330.148 225.101 327.161 224.472 323.61 224.472H315.952V260.707ZM360.781 271V214.178H399.069V224.083H372.795V237.623H397.099V247.528H372.795V261.095H399.18V271H360.781ZM408.62 214.178H423.436L439.084 252.355H439.75L455.398 214.178H470.214V271H458.561V234.016H458.09L443.385 270.723H435.45L420.745 233.877H420.273V271H408.62V214.178ZM480.112 271V214.178H502.53C506.84 214.178 510.512 215.001 513.545 216.648C516.578 218.275 518.891 220.541 520.481 223.445C522.09 226.331 522.895 229.66 522.895 233.433C522.895 237.207 522.081 240.536 520.454 243.421C518.826 246.307 516.467 248.554 513.379 250.164C510.308 251.773 506.59 252.577 502.225 252.577H487.936V242.95H500.283C502.595 242.95 504.5 242.552 505.998 241.757C507.515 240.943 508.643 239.824 509.383 238.4C510.142 236.957 510.521 235.301 510.521 233.433C510.521 231.547 510.142 229.9 509.383 228.495C508.643 227.07 507.515 225.97 505.998 225.193C504.482 224.398 502.558 224 500.227 224H492.126V271H480.112ZM530.698 271V214.178H568.986V224.083H542.712V237.623H567.017V247.528H542.712V261.095H569.097V271H530.698ZM578.538 271V214.178H600.956C605.247 214.178 608.909 214.946 611.943 216.481C614.995 217.998 617.316 220.153 618.907 222.946C620.516 225.72 621.32 228.985 621.32 232.74C621.32 236.513 620.507 239.759 618.879 242.478C617.251 245.179 614.893 247.25 611.804 248.693C608.733 250.136 605.016 250.857 600.65 250.857H585.64V241.202H598.708C601.002 241.202 602.907 240.887 604.424 240.259C605.94 239.63 607.069 238.686 607.809 237.429C608.567 236.171 608.946 234.608 608.946 232.74C608.946 230.853 608.567 229.262 607.809 227.968C607.069 226.673 605.931 225.692 604.396 225.027C602.879 224.342 600.965 224 598.653 224H590.551V271H578.538ZM609.224 245.142L623.346 271H610.084L596.267 245.142H609.224Z" fill="black"/>
<path d="M0 110L110 178.193V310L0 239.262V110Z" fill="#383838"/>
<path d="M110 310L220 241.807V110L110 178.5V310Z" fill="#191919"/>
<path d="M0 110L110 44L220 110L110 178.5L0 110Z" fill="#717171"/>
</svg>
